# xmcd
#
# Track frame offsets:
#	150
#	14325
#	26589
#	39678
#	52094
#	65173
#	77449
#	89262
#	101493
#	116936
#	130361
#	146547
#	159455
#	172643
#	184643
#	196553
#	210457
#	224790
#	238065
#	249352
#	263527
#	278077
#	293527
#	307176
#	320416
#
# Disc length: 4444 seconds
# Revision: 0
# Processed by: cddbd v1.5.2PL0 Copyright (c) Steve Scherf et al.
# Submitted via: dBpowerAMP V12.0
#
DISCID=65115a19
DTITLE=Various Artist - Those Dirty Blues Volume 4
DYEAR=1931
DGENRE=Blues
TTITLE0=Bo Carter - Banana In Your Fruit Basket
TTITLE1=Harlem Hamfats - Don't Start No Stuff
TTITLE2=Alberta Hunter - Second Hand Man
TTITLE3=Cannon's Jug Stompers - Bring It With You When You Come
TTITLE4=Mississippi John Hurt - Nobody's Dirty Business
TTITLE5=Chicago Black Swans - Don't Tear My Clothes No. 2
TTITLE6=Al Miller - Somebody's Been Usin' That Thing
TTITLE7=Kokomo Arnold - Big Leg Mama (John Russel Blues)
TTITLE8=Lil Johnson - Take It Easy Greasy
TTITLE9=Blind Blake - Diddie Wa Diddie
TTITLE10=Edith Wilson - My Handy Man Ain't Handy No More
TTITLE11=Bo Weavil Jackson - Devil And My Brown Blues
TTITLE12=Jelly Roll Morton - The Naked Dance
TTITLE13=George Noble - Sissy Man Blues
TTITLE14=Leroy Carter& Scrapper Blackwell - Papa Wants A Cookie
TTITLE15=Lonnie Johnson - Once Or Twice
TTITLE16=Papa Charlie Jackson - You Put It In, I'll Take It Out
TTITLE17=Famous Hokum Boys - Saturday Night Rub
TTITLE18=The Memphis Jug Band - Papa's Got Your Water On
TTITLE19=Jim Jackson - I'm A Bad Bad Man
TTITLE20=Ora Alexander - You've Got To Save That Thing
TTITLE21=Bert "Snake Root" Hanson - Freakish Rider Blues
TTITLE22=William Moore - Old Country Rock
TTITLE23=Papa Charlie McCoy - Candy Man Blues
TTITLE24=The Mississippi Sheiks - Ramrod Blues
EXTD=
EXTT0=
EXTT1=
EXTT2=
EXTT3=
EXTT4=
EXTT5=
EXTT6=
EXTT7=
EXTT8=
EXTT9=
EXTT10=
EXTT11=
EXTT12=
EXTT13=
EXTT14=
EXTT15=
EXTT16=
EXTT17=
EXTT18=
EXTT19=
EXTT20=
EXTT21=
EXTT22=
EXTT23=
EXTT24=
PLAYORDER=
